<?xml version="1.0" standalone="no"?>
<!DOCTYPE svg PUBLIC "-//W3C//DTD SVG 20010904//EN"
 "http://www.w3.org/TR/2001/REC-SVG-20010904/DTD/svg10.dtd">
<svg version="1.0" xmlns="http://www.w3.org/2000/svg"
 width="70.000000pt" height="70.000000pt" viewBox="0 0 70.000000 70.000000"
 preserveAspectRatio="xMidYMid meet">
<metadata>
Created by potrace 1.14, written by Peter Selinger 2001-2017
</metadata>
<g transform="translate(0.000000,70.000000) scale(0.100000,-0.100000)"
fill="#000000" stroke="none">
<path d="M264 691 c-55 -14 -136 -65 -178 -114 -187 -213 -46 -552 238 -574
240 -20 425 207 362 441 -48 177 -241 290 -422 247z m226 -56 c68 -35 116 -84
149 -155 36 -76 36 -192 1 -265 -29 -60 -96 -126 -159 -157 -55 -27 -184 -32
-241 -9 -75 30 -137 87 -172 158 -29 60 -33 77 -32 148 0 66 5 89 27 131 45
87 123 152 212 175 59 16 156 4 215 -26z"/>
<path d="M180 371 c0 -140 2 -153 21 -172 18 -18 29 -20 77 -15 70 7 74 7 144
0 48 -5 59 -3 77 15 19 19 21 32 21 172 0 116 -3 150 -12 147 -10 -4 -13 -43
-14 -147 -1 -79 -6 -147 -11 -152 -14 -14 -92 -14 -106 0 -8 8 -12 57 -12 151
-1 77 -4 143 -8 146 -16 17 -21 -15 -22 -146 -1 -84 -5 -144 -12 -151 -13 -13
-92 -14 -105 -1 -6 6 -11 70 -12 153 -1 104 -4 143 -13 147 -10 3 -13 -31 -13
-147z"/>
</g>
</svg>
